# xmcd CD database file
#
# Track frame offsets:
#	150
#	33900
#	63598
#	77772
#	101130
#	129849
#	160146
#	191737
#	219143
#	254566
#	288875
#
# Disc length: 4341 seconds
#
# Revision: 0
# Processed by: cddbd v1.5.1PL0 Copyright (c) Steve Scherf et al.
# Submitted via: CDex 1.51
#
DISCID=9510f30b
DTITLE=Jann Rutherford - The Scented Garden
DYEAR=1900
DGENRE=Jazz
TTITLE0=Changes
TTITLE1=Staying in Touch
TTITLE2=Keep Following Me
TTITLE3=Mainin's Mania
TTITLE4=The Beginning
TTITLE5=Mr Visa Man
TTITLE6=Waltz for Jun
TTITLE7=Alone Together
TTITLE8=Some Other Planet
TTITLE9=Dancing Along in the Madness
TTITLE10=The Scented Garden
EXTD=
EXTT0=
EXTT1=
EXTT2=
EXTT3=
EXTT4=
EXTT5=
EXTT6=
EXTT7=
EXTT8=
EXTT9=
EXTT10=
PLAYORDER=
